<svg width="914" height="400" fill="none" xmlns="http://www.w3.org/2000/svg">
  <path fill="#fff" d="M0 0h914v400H0z"/>
  <path d="M435.956 212.513c-1.039 0-1.914-.171-2.625-.513a4.618 4.618 0 01-1.743-1.559V212h-5.456v-27.85l5.456-2.481v10.418c.464-.615 1.08-1.108 1.845-1.477.766-.382 1.675-.574 2.728-.574 1.285 0 2.468.26 3.548.779a7.926 7.926 0 012.83 2.215c.793.957 1.408 2.133 1.845 3.528.452 1.38.677 2.946.677 4.696 0 1.818-.212 3.432-.636 4.84-.423 1.394-1.032 2.57-1.825 3.527a7.803 7.803 0 01-2.871 2.153c-1.121.493-2.379.739-3.773.739zm-.636-5.25c.697 0 1.312-.137 1.846-.41a3.78 3.78 0 001.333-1.21c.369-.534.642-1.169.82-1.908.191-.738.287-1.565.287-2.481 0-1.928-.376-3.404-1.128-4.43-.738-1.025-1.791-1.538-3.158-1.538-.465 0-.896.055-1.292.164a4.141 4.141 0 00-1.066.41 3.651 3.651 0 00-.821.575c-.232.205-.417.41-.553.615v8.49a4.07 4.07 0 001.497 1.272c.601.3 1.346.451 2.235.451zm21.73 5.25c-1.518 0-2.885-.253-4.102-.759a8.789 8.789 0 01-3.117-2.215c-.847-.971-1.504-2.146-1.968-3.527-.465-1.395-.698-2.967-.698-4.717 0-1.75.233-3.322.698-4.717.464-1.394 1.121-2.577 1.968-3.548a8.465 8.465 0 013.117-2.215c1.217-.519 2.584-.779 4.102-.779 1.518 0 2.885.26 4.102.779a8.27 8.27 0 013.096 2.215c.862.971 1.518 2.154 1.969 3.548.465 1.395.697 2.967.697 4.717 0 1.75-.232 3.322-.697 4.717-.451 1.381-1.107 2.556-1.969 3.527a8.58 8.58 0 01-3.096 2.215c-1.217.506-2.584.759-4.102.759zm0-5.25c.684 0 1.299-.137 1.846-.41a3.779 3.779 0 001.374-1.169c.383-.52.676-1.149.882-1.887.205-.738.307-1.572.307-2.502 0-.943-.102-1.784-.307-2.523-.206-.738-.499-1.367-.882-1.886a3.697 3.697 0 00-1.374-1.19c-.547-.273-1.162-.41-1.846-.41-.684 0-1.299.137-1.846.41a3.869 3.869 0 00-1.394 1.19c-.369.519-.656 1.148-.862 1.886-.205.739-.307 1.58-.307 2.523 0 .93.102 1.764.307 2.502.206.738.493 1.367.862 1.887a3.96 3.96 0 001.394 1.169c.547.273 1.162.41 1.846.41zm23.063 5.25c-1.053 0-1.962-.192-2.727-.575-.766-.382-1.381-.881-1.846-1.497v7.486l-5.455 2.481v-29.88h5.455v1.559c.465-.615 1.08-1.108 1.846-1.477.779-.382 1.702-.574 2.768-.574 1.326 0 2.536.246 3.63.738a7.45 7.45 0 012.789 2.174c.779.944 1.381 2.119 1.805 3.528.424 1.394.635 3.001.635 4.819 0 1.75-.225 3.322-.676 4.717-.438 1.381-1.053 2.556-1.846 3.527a8.227 8.227 0 01-2.83 2.215c-1.08.506-2.263.759-3.548.759zm-.841-5.25c1.367 0 2.42-.513 3.158-1.538.752-1.039 1.128-2.516 1.128-4.43 0-.916-.095-1.743-.287-2.482-.177-.738-.451-1.367-.82-1.886-.355-.52-.8-.923-1.333-1.21-.533-.287-1.148-.431-1.846-.431-.888 0-1.634.151-2.235.451a4.07 4.07 0 00-1.497 1.272v8.49c.137.205.321.417.554.636.232.205.505.396.82.574.314.164.67.301 1.066.41.397.096.827.144 1.292.144z" fill="#96C"/>
  <path stroke="#96C" stroke-width="5" d="M404.5 168.5h105v63h-105z"/>
</svg>
